# xmcd
#
# Track frame offsets: 
#        150
#        32101
#        49780
#        82310
#        107314
#        146174
#        175204
#        192218
#        210424
#        234862
#        256392
#        280833
#
# Disc length: 4174 seconds
#
# Revision: 0
# Processed by: cddbd v1.5.2PL0 Copyright (c) Steve Scherf et al.
# Submitted via: ExactAudioCopyFreeDBPlugin 1.0
#
DISCID=a4104c0c
DTITLE=Maze - MAZE the essential collection disc 1
DYEAR=2012
DGENRE=Soul
TTITLE0=Back In Stride
TTITLE1=Before I Let Go
TTITLE2=Joy And Pain
TTITLE3=Golden Time Of Day
TTITLE4=Look At California
TTITLE5=We Are One
TTITLE6=Happy Feelin's (live)
TTITLE7=Southern Girl
TTITLE8=I Wanna Thank You
TTITLE9=Lady Of Magic
TTITLE10=Never Let You Down
TTITLE11=Can't Stop The Love
EXTD=
EXTT0=
EXTT1=
EXTT2=
EXTT3=
EXTT4=
EXTT5=
EXTT6=
EXTT7=
EXTT8=
EXTT9=
EXTT10=
EXTT11=
PLAYORDER=
